<svg version="1.0" xmlns="http://www.w3.org/2000/svg" preserveAspectRatio="xMidYMid meet" viewBox="101.98 97.48 295.53 305.53">

<g transform="translate(0.000000,500.000000) scale(0.100000,-0.100000)" fill="#000000" stroke="none">
<path d="M1645 4016 c-29 -13 -55 -51 -55 -81 0 -12 -16 -15 -73 -15 -125 0 -235 -43 -330 -130 -71 -65 -113 -131 -143 -225 l-24 -76 0 -1037 c0 -1143 -3 -1092 63 -1216 69 -133 215 -235 362 -256 99 -14 783 -13 824 1 31 11 61 52 61 84 0 25 -27 72 -47 81 -10 5 -205 11 -433 14 -410 5 -416 5 -463 28 -70 35 -130 99 -158 168 l-24 59 0 790 0 790 1108 3 1107 2 0 -126 c0 -125 0 -126 29 -155 40 -39 92 -40 127 -2 l25 27 -3 395 c-3 449 -3 449 -90 573 -89 128 -217 197 -380 205 -95 5 -98 6 -98 29 0 12 -11 35 -24 51 -19 22 -32 28 -66 28 -34 0 -47 -6 -66 -28 -13 -16 -24 -39 -24 -53 l0 -24 -222 2 -223 3 -3 26 c-11 93 -160 97 -178 4 l-6 -35 -219 0 -219 0 -6 29 c-12 59 -75 91 -129 67z m-55 -292 c0 -27 33 -73 60 -84 51 -21 110 13 124 73 l6 27 219 0 219 0 5 -28 c10 -50 40 -77 85 -77 48 0 79 24 90 69 l8 31 222 3 222 2 0 -24 c0 -14 11 -37 24 -53 19 -22 32 -28 66 -28 34 0 47 6 66 28 13 16 24 40 24 54 l0 26 79 -6 c137 -9 235 -79 287 -206 21 -50 24 -73 24 -204 l0 -147 -1107 2 -1108 3 0 150 c1 142 2 153 28 210 58 125 162 193 300 194 46 1 57 -2 57 -15z"/>
<path d="M1693 2666 c-61 -27 -72 -98 -24 -147 l29 -29 607 0 c671 0 653 -2 674 63 13 40 4 72 -29 102 -22 19 -38 20 -624 22 -495 2 -607 0 -633 -11z"/>
<path d="M3530 2511 c-76 -25 -130 -72 -539 -481 -237 -237 -437 -443 -445 -458 -15 -29 -66 -319 -66 -373 0 -54 37 -116 83 -143 23 -13 54 -26 69 -30 32 -7 357 48 394 67 14 7 221 209 460 448 500 499 489 485 489 634 -1 109 -27 175 -98 246 -69 69 -124 92 -232 95 -49 2 -101 0 -115 -5z m163 -185 c42 -17 84 -67 97 -114 16 -63 -3 -107 -84 -190 l-71 -73 -115 116 -115 115 65 66 c91 93 146 113 223 80z m-471 -789 l-283 -283 -132 -21 c-72 -12 -133 -20 -136 -18 -2 3 6 64 17 137 l21 132 283 283 283 283 115 -115 115 -115 -283 -283z"/>
<path d="M1669 2141 c-38 -38 -40 -91 -4 -126 l24 -25 506 0 506 0 24 25 c38 37 35 95 -6 129 l-31 26 -495 0 -495 0 -29 -29z"/>
<path d="M1667 1632 c-39 -40 -37 -92 4 -126 l31 -26 300 0 300 0 29 29 c37 37 38 79 3 120 l-26 31 -307 0 -307 0 -27 -28z"/>
</g>
</svg>